# Aspose.3D Wavefront OBJ Exporter
# Copyright 2004-2021 Aspose Pty Ltd.
# File created: 06/02/2021 11:52:35


#
# object obj_6785403
#

v 8.02511405944824219 8.0215921401977539 0.13884544372558594
v 8.02511405944824219 -8.00610542297363281 0.13884544372558594
v -8.01639747619628906 -8.00610542297363281 0.13884544372558594
v -8.01639747619628906 8.0215921401977539 0.13884544372558594
v 0.00674682855606079 0.01012936234474182 11.23347473144531248
v 0.00196975469589233 0.01012936234474182 11.23347473144531248
v 0.00196975469589233 0.00535640120506286 11.23347473144531248
v 0.00674682855606079 0.00535640120506286 11.23347473144531248
# 8 vertices

vn 0 0 -1
vn 0 0 1
vn 0.81061971187591552 0 0.58557301759719848
vn 0.81048572063446048 0 0.58575844764709472
vn 0 -0.81075084209442144 0.58539146184921264
vn 0 -0.8107251524925232 0.5854268670082092
vn -0.81052422523498528 0 0.58570516109466552
vn -0.81048583984375008 0 0.58575844764709472
vn 0 0.8107251524925232 0.5854269862174988
vn 0 0.81071710586547856 0.58543801307678224
# 10 vertex normals

g obj_6785403
s 1
f 1//1 2//1 3//1
f 3//1 4//1 1//1
f 5//2 6//2 7//2
f 7//2 8//2 5//2
f 1//3 5//3 8//3
f 8//4 2//4 1//4
f 2//5 8//5 7//5
f 7//6 3//6 2//6
f 3//7 7//7 6//7
f 6//8 4//8 3//8
f 5//9 1//9 4//9
f 4//10 6//10 5//10
#12 polygons

