# Aspose.3D Wavefront OBJ Exporter
# Copyright 2004-2021 Aspose Pty Ltd.
# File created: 06/02/2021 11:54:00


#
# object obj_157509
#

v -21.42955780029296872 -24.74337387084960944 0.00021854013903066516
v -21.4249229431152344 24.74337387084960944 0.0004499738570302725
v 21.4295616149902344 -0.00405644020065665 2.9103830456733704E-11
v -7.14124822616577148 -0.00149834132753312 40.00017929077148437
# 4 vertices

vn -7.798948900017422E-06 4.677411197917536E-06 -1
vn 0.47079679369926456 -0.81561923027038576 0.33632674813270568
vn 0.4709510505199432 0.81552761793136592 0.33633270859718324
vn -0.9417394399642944 8.662898471811786E-05 0.33634334802627564
# 4 vertex normals

g obj_157509
s 1
f 1//1 2//1 3//1
f 1//2 3//2 4//2
f 2//3 4//3 3//3
f 1//4 4//4 2//4
#4 polygons

